<?xml version="1.0" encoding="UTF-8"?>
<svg id="Layer_2" data-name="Layer 2" xmlns="http://www.w3.org/2000/svg" viewBox="0 0 130.9 36.33">
  <defs>
    <style>
      .cls-1 {
        fill: #fff;
      }
    </style>
  </defs>
  <g id="Layer_1-2" data-name="Layer 1">
    <g>
      <path class="cls-1" d="M0,0H20.11c3.35,0,5.92,.85,7.72,2.56,1.79,1.71,2.69,3.82,2.69,6.33,0,2.11-.64,3.92-1.92,5.43-.85,1.01-2.1,1.8-3.75,2.39,2.5,.62,4.34,1.68,5.51,3.18,1.18,1.5,1.77,3.39,1.77,5.66,0,1.85-.42,3.52-1.26,4.99-.84,1.48-1.98,2.65-3.44,3.51-.9,.54-2.26,.93-4.08,1.17-2.42,.32-4.02,.49-4.81,.49H0V0ZM10.84,14.01h4.67c1.68,0,2.84-.3,3.5-.89,.66-.59,.98-1.45,.98-2.57,0-1.04-.33-1.85-.98-2.44-.66-.58-1.8-.88-3.43-.88h-4.74v6.77Zm0,14.03h5.48c1.85,0,3.15-.34,3.91-1.01,.76-.67,1.14-1.58,1.14-2.72,0-1.06-.38-1.9-1.13-2.55-.75-.64-2.07-.96-3.95-.96h-5.45v7.24Z"/>
      <path class="cls-1" d="M55.54,0h10.72V21.28c0,2.11-.32,4.1-.96,5.98-.64,1.87-1.64,3.51-3.01,4.92-1.37,1.4-2.8,2.39-4.3,2.96-2.09,.8-4.59,1.19-7.52,1.19-1.69,0-3.54-.12-5.54-.37-2-.24-3.67-.73-5.02-1.45-1.34-.72-2.57-1.75-3.69-3.08-1.11-1.33-1.88-2.7-2.29-4.11-.66-2.27-1-4.29-1-6.04V0h10.72V21.79c0,1.95,.53,3.47,1.58,4.56,1.05,1.09,2.51,1.64,4.38,1.64s3.3-.54,4.35-1.62c1.05-1.08,1.58-2.61,1.58-4.59V0Z"/>
      <path class="cls-1" d="M88.7,29.82h-12.19l-1.7,5.9h-10.97L76.91,0h11.72l13.06,35.72h-11.25l-1.74-5.9Zm-2.23-7.72l-3.84-12.84-3.8,12.84h7.64Z"/>
      <path class="cls-1" d="M101.38,0h17.86c3.89,0,6.8,.95,8.74,2.85,1.94,1.9,2.9,4.6,2.9,8.11s-1.06,6.42-3.17,8.45c-2.11,2.03-5.33,3.05-9.66,3.05h-5.88v13.25h-10.79V0Zm10.79,15.23h2.63c2.07,0,3.53-.37,4.36-1.11,.84-.74,1.26-1.69,1.26-2.84s-.36-2.07-1.09-2.85c-.73-.78-2.09-1.17-4.1-1.17h-3.06v7.97Z"/>
      <path class="cls-1" d="M125.53,32.79c0-1.71,1.21-2.88,2.68-2.88s2.69,1.17,2.69,2.88-1.21,2.88-2.69,2.88-2.68-1.17-2.68-2.88m4.8,0c0-1.38-.93-2.36-2.12-2.36s-2.11,.98-2.11,2.36,.91,2.34,2.11,2.34,2.12-.95,2.12-2.34Zm-3.15-1.52h1.08c.6,0,1.11,.25,1.11,.95,0,.35-.21,.69-.53,.8l.66,1.21h-.66l-.5-1.02h-.58v1.02h-.58v-2.97Zm.95,1.48c.38,0,.61-.18,.61-.5,0-.29-.16-.48-.58-.48h-.4v.98h.37Z"/>
    </g>
  </g>
</svg>