<?xml version="1.0" encoding="UTF-8"?>
<svg id="Layer_2" data-name="Layer 2" xmlns="http://www.w3.org/2000/svg" viewBox="0 0 566.64 86.45">
  <defs>
    <style>
      .cls-1 {
        fill: #fff;
      }
    </style>
  </defs>
  <g id="Layer_1-2" data-name="Layer 1">
    <g>
      <g>
        <path class="cls-1" d="M0,9.7H37.12c6.19,0,10.94,1.57,14.25,4.72,3.31,3.15,4.97,7.05,4.97,11.69,0,3.9-1.18,7.24-3.55,10.03-1.58,1.86-3.88,3.33-6.92,4.41,4.61,1.14,8,3.1,10.18,5.87,2.17,2.77,3.26,6.26,3.26,10.46,0,3.42-.77,6.49-2.32,9.22-1.55,2.73-3.66,4.89-6.35,6.48-1.66,.99-4.17,1.71-7.53,2.16-4.46,.6-7.43,.9-8.89,.9H0V9.7Zm20,25.86h8.62c3.09,0,5.25-.55,6.46-1.64,1.21-1.09,1.82-2.68,1.82-4.75,0-1.92-.6-3.42-1.82-4.5-1.21-1.08-3.32-1.62-6.33-1.62h-8.75v12.5Zm0,25.91h10.11c3.41,0,5.82-.62,7.22-1.87,1.4-1.24,2.1-2.92,2.1-5.01,0-1.95-.69-3.52-2.08-4.7-1.39-1.18-3.81-1.78-7.29-1.78h-10.07v13.36Z"/>
        <path class="cls-1" d="M102.52,9.7h19.79V48.98c0,3.89-.59,7.58-1.77,11.03-1.18,3.46-3.04,6.49-5.56,9.08-2.52,2.59-5.17,4.41-7.94,5.46-3.85,1.47-8.48,2.2-13.88,2.2-3.12,0-6.53-.23-10.22-.67-3.69-.45-6.78-1.34-9.26-2.67-2.48-1.33-4.75-3.23-6.81-5.69-2.06-2.46-3.46-4.99-4.22-7.6-1.23-4.19-1.84-7.91-1.84-11.15V9.7h19.79V49.92c0,3.59,.97,6.4,2.91,8.42,1.94,2.02,4.63,3.03,8.08,3.03s6.09-1,8.03-2.99c1.94-1.99,2.91-4.81,2.91-8.47V9.7Z"/>
        <path class="cls-1" d="M163.75,64.75h-22.51l-3.13,10.88h-20.24L141.98,9.7h21.63l24.11,65.93h-20.76l-3.21-10.88Zm-4.11-14.26l-7.08-23.7-7.01,23.7h14.1Z"/>
        <path class="cls-1" d="M187.15,9.7h32.96c7.18,0,12.56,1.75,16.13,5.26,3.57,3.51,5.36,8.5,5.36,14.98s-1.95,11.86-5.84,15.61c-3.89,3.75-9.84,5.62-17.84,5.62h-10.86v24.47h-19.92V9.7Zm19.92,28.11h4.86c3.82,0,6.51-.68,8.05-2.05,1.55-1.36,2.32-3.11,2.32-5.24s-.67-3.82-2.01-5.26c-1.34-1.44-3.87-2.16-7.57-2.16h-5.65v14.71Z"/>
        <path class="cls-1" d="M231.74,70.22c0-3.16,2.23-5.32,4.94-5.32s4.97,2.16,4.97,5.32-2.23,5.32-4.97,5.32-4.94-2.16-4.94-5.32m8.86,0c0-2.54-1.71-4.35-3.92-4.35s-3.89,1.81-3.89,4.35,1.68,4.32,3.89,4.32,3.92-1.76,3.92-4.32Zm-5.81-2.81h2c1.1,0,2.05,.46,2.05,1.76,0,.65-.39,1.27-.97,1.49l1.21,2.24h-1.21l-.92-1.89h-1.08v1.89h-1.08v-5.48Zm1.76,2.73c.71,0,1.13-.32,1.13-.92,0-.54-.29-.89-1.08-.89h-.74v1.81h.68Z"/>
      </g>
      <g>
        <rect class="cls-1" x="282.49" width="4.5" height="86.45"/>
        <g>
          <path class="cls-1" d="M329.02,15.88h10.83v2.69h-7.65v5.07h6.5v2.69h-6.5v7.49h-3.18V15.88Z"/>
          <path class="cls-1" d="M349.01,25.21c-.03-1.43-.63-2.63-2.44-2.63-1.34,0-2.61,.6-3.78,1.32l-1.15-2.11c1.48-.93,3.37-1.75,5.51-1.75,3.37,0,5.02,2.06,5.02,5.81v7.98h-2.58l-.25-1.48h-.08c-1.21,1.01-2.58,1.81-4.17,1.81-2.36,0-4-1.59-4-3.95,0-2.88,2.41-4.39,7.92-4.99Zm-2.93,6.47c1.1,0,1.95-.55,2.93-1.48v-3.02c-3.65,.47-4.85,1.43-4.85,2.77,0,1.21,.79,1.73,1.92,1.73Z"/>
          <path class="cls-1" d="M361.87,20.02c1.73,0,3.04,.69,3.95,1.56l-1.51,2c-.71-.63-1.43-.99-2.28-.99-2.17,0-3.67,1.78-3.67,4.5s1.48,4.47,3.59,4.47c1.1,0,2.03-.55,2.77-1.15l1.32,2c-1.26,1.12-2.88,1.73-4.41,1.73-3.67,0-6.5-2.58-6.5-7.05s3.15-7.08,6.75-7.08Z"/>
          <path class="cls-1" d="M368.54,20.35h3.15v8.03c0,2.22,.63,3.04,2.08,3.04,1.18,0,1.97-.55,2.99-1.86v-9.21h3.15v13.46h-2.58l-.25-1.97h-.08c-1.18,1.4-2.5,2.3-4.33,2.3-2.88,0-4.14-1.95-4.14-5.35v-8.45Z"/>
          <path class="cls-1" d="M383.93,14.46h3.15V30.52c0,.77,.36,1.04,.69,1.04,.14,0,.25,0,.49-.05l.41,2.36c-.38,.16-.93,.27-1.67,.27-2.25,0-3.07-1.45-3.07-3.78V14.46Z"/>
          <path class="cls-1" d="M391.83,22.85h-1.92v-2.36l2.08-.14,.38-3.67h2.63v3.67h3.43v2.5h-3.43v6.42c0,1.59,.6,2.36,1.89,2.36,.47,0,1.01-.14,1.4-.3l.55,2.33c-.74,.25-1.67,.49-2.74,.49-3.13,0-4.28-1.97-4.28-4.88v-6.42Z"/>
          <path class="cls-1" d="M408.2,25.21c-.03-1.43-.63-2.63-2.44-2.63-1.34,0-2.61,.6-3.78,1.32l-1.15-2.11c1.48-.93,3.37-1.75,5.51-1.75,3.37,0,5.02,2.06,5.02,5.81v7.98h-2.58l-.25-1.48h-.08c-1.21,1.01-2.58,1.81-4.17,1.81-2.36,0-4-1.59-4-3.95,0-2.88,2.41-4.39,7.92-4.99Zm-2.93,6.47c1.1,0,1.95-.55,2.93-1.48v-3.02c-3.65,.47-4.85,1.43-4.85,2.77,0,1.21,.79,1.73,1.92,1.73Z"/>
          <path class="cls-1" d="M420.08,20.02c1.54,0,2.5,.58,3.54,1.48l-.11-2.17v-4.88h3.15v19.36h-2.6l-.22-1.45h-.11c-.99,.99-2.36,1.78-3.81,1.78-3.37,0-5.54-2.61-5.54-7.05s2.77-7.08,5.7-7.08Zm.6,11.52c1.04,0,1.92-.47,2.82-1.51v-6.28c-.93-.82-1.84-1.12-2.74-1.12-1.73,0-3.13,1.62-3.13,4.44s1.1,4.47,3.04,4.47Z"/>
          <path class="cls-1" d="M441.17,20.02c1.54,0,2.5,.58,3.54,1.48l-.11-2.17v-4.88h3.15v19.36h-2.6l-.22-1.45h-.11c-.99,.99-2.36,1.78-3.81,1.78-3.37,0-5.54-2.61-5.54-7.05s2.77-7.08,5.7-7.08Zm.6,11.52c1.04,0,1.92-.47,2.82-1.51v-6.28c-.93-.82-1.84-1.12-2.74-1.12-1.73,0-3.13,1.62-3.13,4.44s1.1,4.47,3.04,4.47Z"/>
          <path class="cls-1" d="M457.07,20.02c3.65,0,5.57,2.63,5.57,6.39,0,.6-.05,1.15-.14,1.48h-8.55c.27,2.44,1.81,3.81,3.98,3.81,1.15,0,2.14-.36,3.13-.99l1.07,1.97c-1.29,.85-2.91,1.45-4.61,1.45-3.73,0-6.64-2.61-6.64-7.05s3.04-7.08,6.2-7.08Zm2.82,5.87c0-2.14-.91-3.43-2.74-3.43-1.59,0-2.96,1.18-3.24,3.43h5.98Z"/>
          <path class="cls-1" d="M478.85,15.55c2.19,0,3.98,1.07,5.1,2.28l-1.75,1.97c-.93-.91-1.95-1.48-3.32-1.48-2.93,0-5.04,2.47-5.04,6.5s1.95,6.55,4.94,6.55c1.59,0,2.77-.66,3.78-1.78l1.75,1.95c-1.45,1.67-3.32,2.61-5.59,2.61-4.55,0-8.14-3.29-8.14-9.24s3.67-9.35,8.28-9.35Z"/>
          <path class="cls-1" d="M486.64,16.21c0-1.07,.82-1.81,1.95-1.81s1.95,.74,1.95,1.81-.82,1.78-1.95,1.78-1.95-.74-1.95-1.78Zm.36,4.14h3.15v13.46h-3.15v-13.46Z"/>
          <path class="cls-1" d="M499.5,20.02c3.65,0,5.57,2.63,5.57,6.39,0,.6-.05,1.15-.14,1.48h-8.55c.27,2.44,1.81,3.81,3.98,3.81,1.15,0,2.14-.36,3.13-.99l1.07,1.97c-1.29,.85-2.91,1.45-4.61,1.45-3.73,0-6.64-2.61-6.64-7.05s3.04-7.08,6.2-7.08Zm2.82,5.87c0-2.14-.91-3.43-2.74-3.43-1.59,0-2.96,1.18-3.24,3.43h5.98Z"/>
          <path class="cls-1" d="M508.09,20.35h2.6l.22,1.81h.11c1.21-1.18,2.58-2.14,4.42-2.14,2.88,0,4.14,1.95,4.14,5.35v8.45h-3.15v-8.03c0-2.22-.63-3.04-2.11-3.04-1.18,0-1.95,.58-3.07,1.67v9.41h-3.15v-13.46Z"/>
          <path class="cls-1" d="M529.32,20.02c1.73,0,3.04,.69,3.95,1.56l-1.51,2c-.71-.63-1.43-.99-2.28-.99-2.17,0-3.67,1.78-3.67,4.5s1.48,4.47,3.59,4.47c1.1,0,2.03-.55,2.77-1.15l1.32,2c-1.26,1.12-2.88,1.73-4.41,1.73-3.67,0-6.5-2.58-6.5-7.05s3.15-7.08,6.75-7.08Z"/>
          <path class="cls-1" d="M535.76,16.21c0-1.07,.82-1.81,1.95-1.81s1.95,.74,1.95,1.81-.82,1.78-1.95,1.78-1.95-.74-1.95-1.78Zm.36,4.14h3.15v13.46h-3.15v-13.46Z"/>
          <path class="cls-1" d="M550.66,25.21c-.03-1.43-.63-2.63-2.44-2.63-1.34,0-2.61,.6-3.78,1.32l-1.15-2.11c1.48-.93,3.37-1.75,5.51-1.75,3.37,0,5.02,2.06,5.02,5.81v7.98h-2.58l-.25-1.48h-.08c-1.21,1.01-2.58,1.81-4.17,1.81-2.36,0-4-1.59-4-3.95,0-2.88,2.41-4.39,7.92-4.99Zm-2.93,6.47c1.1,0,1.95-.55,2.93-1.48v-3.02c-3.65,.47-4.85,1.43-4.85,2.77,0,1.21,.79,1.73,1.92,1.73Z"/>
          <path class="cls-1" d="M557.79,30.25c1.21,.93,2.36,1.51,3.73,1.51,1.45,0,2.14-.69,2.14-1.62,0-1.12-1.45-1.62-2.88-2.17-1.78-.66-3.78-1.67-3.78-3.92,0-2.36,1.89-4.03,4.91-4.03,1.86,0,3.37,.77,4.47,1.62l-1.45,1.92c-.93-.69-1.89-1.15-2.96-1.15-1.34,0-1.97,.63-1.97,1.48,0,1.04,1.34,1.48,2.8,2,1.84,.69,3.87,1.56,3.87,4.09,0,2.3-1.84,4.17-5.24,4.17-1.84,0-3.78-.8-5.1-1.87l1.48-2.03Z"/>
          <path class="cls-1" d="M333.65,52.94c1.54,0,2.5,.58,3.54,1.48l-.11-2.17v-4.88h3.15v19.36h-2.6l-.22-1.45h-.11c-.99,.99-2.36,1.78-3.81,1.78-3.37,0-5.54-2.61-5.54-7.05s2.77-7.08,5.7-7.08Zm.6,11.52c1.04,0,1.92-.47,2.82-1.51v-6.28c-.93-.82-1.84-1.12-2.74-1.12-1.73,0-3.13,1.62-3.13,4.44s1.1,4.47,3.04,4.47Z"/>
          <path class="cls-1" d="M349.56,52.94c3.65,0,5.57,2.63,5.57,6.39,0,.6-.05,1.15-.14,1.48h-8.55c.27,2.44,1.81,3.81,3.98,3.81,1.15,0,2.14-.36,3.13-.99l1.07,1.97c-1.29,.85-2.91,1.45-4.61,1.45-3.73,0-6.64-2.61-6.64-7.05s3.04-7.08,6.2-7.08Zm2.82,5.87c0-2.14-.91-3.43-2.74-3.43-1.59,0-2.96,1.18-3.24,3.43h5.98Z"/>
          <path class="cls-1" d="M364.01,48.8h3.18v15.25h7.43v2.69h-10.61v-17.93Z"/>
          <path class="cls-1" d="M384.8,58.12c-.03-1.43-.63-2.63-2.44-2.63-1.34,0-2.61,.6-3.78,1.32l-1.15-2.11c1.48-.93,3.37-1.75,5.51-1.75,3.37,0,5.02,2.06,5.02,5.81v7.98h-2.58l-.25-1.48h-.08c-1.21,1.01-2.58,1.81-4.17,1.81-2.36,0-4-1.59-4-3.95,0-2.88,2.41-4.39,7.92-4.99Zm-2.93,6.47c1.1,0,1.95-.55,2.93-1.48v-3.02c-3.65,.47-4.85,1.43-4.85,2.77,0,1.21,.79,1.73,1.92,1.73Z"/>
          <path class="cls-1" d="M404.99,48.47c2.19,0,3.98,1.07,5.1,2.28l-1.75,1.97c-.93-.91-1.95-1.48-3.32-1.48-2.93,0-5.04,2.47-5.04,6.5s1.95,6.55,4.94,6.55c1.59,0,2.77-.66,3.78-1.78l1.75,1.95c-1.45,1.67-3.32,2.61-5.59,2.61-4.55,0-8.14-3.29-8.14-9.24s3.67-9.35,8.28-9.35Z"/>
          <path class="cls-1" d="M418.65,52.94c3.37,0,6.42,2.58,6.42,7.08s-3.04,7.05-6.42,7.05-6.39-2.58-6.39-7.05,3.04-7.08,6.39-7.08Zm0,11.54c1.97,0,3.18-1.78,3.18-4.47s-1.21-4.5-3.18-4.5-3.15,1.78-3.15,4.5,1.18,4.47,3.15,4.47Z"/>
          <path class="cls-1" d="M428.19,53.26h2.6l.22,1.84h.11c1.12-1.21,2.44-2.17,4.11-2.17,1.97,0,3.1,.91,3.73,2.41,1.29-1.37,2.63-2.41,4.33-2.41,2.85,0,4.17,1.95,4.17,5.35v8.45h-3.18v-8.03c0-2.22-.66-3.04-2.06-3.04-.85,0-1.78,.55-2.82,1.67v9.41h-3.15v-8.03c0-2.22-.66-3.04-2.08-3.04-.82,0-1.78,.55-2.82,1.67v9.41h-3.15v-13.46Z"/>
          <path class="cls-1" d="M454.47,67.83v4.22h-3.15v-18.78h2.6l.22,1.43h.11c1.12-.96,2.58-1.75,4.06-1.75,3.34,0,5.29,2.69,5.29,6.86,0,4.61-2.77,7.27-5.76,7.27-1.18,0-2.36-.55-3.46-1.48l.08,2.25Zm2.71-3.37c1.78,0,3.15-1.59,3.15-4.63,0-2.69-.88-4.28-2.91-4.28-.99,0-1.92,.49-2.96,1.51v6.28c.99,.82,1.92,1.12,2.71,1.12Z"/>
          <path class="cls-1" d="M466.65,53.26h3.15v8.03c0,2.22,.63,3.04,2.08,3.04,1.18,0,1.97-.55,2.99-1.86v-9.21h3.15v13.46h-2.58l-.25-1.97h-.08c-1.18,1.4-2.5,2.3-4.33,2.3-2.88,0-4.14-1.95-4.14-5.35v-8.45Z"/>
          <path class="cls-1" d="M482.5,55.76h-1.92v-2.36l2.08-.14,.38-3.67h2.63v3.67h3.43v2.5h-3.43v6.42c0,1.59,.6,2.36,1.89,2.36,.47,0,1.01-.14,1.4-.3l.55,2.33c-.74,.25-1.67,.49-2.74,.49-3.13,0-4.28-1.97-4.28-4.88v-6.42Z"/>
          <path class="cls-1" d="M498.87,58.12c-.03-1.43-.63-2.63-2.44-2.63-1.34,0-2.61,.6-3.78,1.32l-1.15-2.11c1.48-.93,3.37-1.75,5.51-1.75,3.37,0,5.02,2.06,5.02,5.81v7.98h-2.58l-.25-1.48h-.08c-1.21,1.01-2.58,1.81-4.17,1.81-2.36,0-4-1.59-4-3.95,0-2.88,2.41-4.39,7.92-4.99Zm-2.93,6.47c1.1,0,1.95-.55,2.93-1.48v-3.02c-3.65,.47-4.85,1.43-4.85,2.77,0,1.21,.79,1.73,1.92,1.73Z"/>
          <path class="cls-1" d="M511.74,52.94c1.73,0,3.04,.69,3.95,1.56l-1.51,2c-.71-.63-1.43-.99-2.28-.99-2.17,0-3.67,1.78-3.67,4.5s1.48,4.47,3.59,4.47c1.1,0,2.03-.55,2.77-1.15l1.32,2c-1.26,1.12-2.88,1.73-4.41,1.73-3.67,0-6.5-2.58-6.5-7.05s3.15-7.08,6.75-7.08Z"/>
          <path class="cls-1" d="M518.18,49.13c0-1.07,.82-1.81,1.95-1.81s1.95,.74,1.95,1.81-.82,1.78-1.95,1.78-1.95-.74-1.95-1.78Zm.36,4.14h3.15v13.46h-3.15v-13.46Z"/>
          <path class="cls-1" d="M531.24,52.94c3.37,0,6.42,2.58,6.42,7.08s-3.04,7.05-6.42,7.05-6.39-2.58-6.39-7.05,3.04-7.08,6.39-7.08Zm0,11.54c1.97,0,3.18-1.78,3.18-4.47s-1.21-4.5-3.18-4.5-3.15,1.78-3.15,4.5,1.18,4.47,3.15,4.47Zm.33-13.46h-2.33l2.44-4h3.15l-3.26,4Z"/>
          <path class="cls-1" d="M540.78,53.26h2.6l.22,1.81h.11c1.21-1.18,2.58-2.14,4.42-2.14,2.88,0,4.14,1.95,4.14,5.35v8.45h-3.15v-8.03c0-2.22-.63-3.04-2.11-3.04-1.18,0-1.95,.58-3.07,1.67v9.41h-3.15v-13.46Z"/>
        </g>
      </g>
    </g>
  </g>
</svg>